<svg width="16" height="24" viewBox="0 0 16 24" fill="none" xmlns="http://www.w3.org/2000/svg">
<path d="M13 7H3V22H13V7Z" fill="#0D5E36"/>
<path d="M10.6786 0.214355H5.32144C4.72951 0.214355 4.25001 0.693849 4.25001 1.28578V2.3572H2.10716C1.22106 2.3572 0.5 3.07827 0.5 3.96437V22.1786C0.5 23.0646 1.22106 23.7858 2.10716 23.7858H13.8928C14.7789 23.7858 15.5 23.0647 15.5 22.1786V3.96437C15.5 3.07832 14.7789 2.3572 13.8928 2.3572H11.75V1.28578C11.7499 0.693849 11.2705 0.214355 10.6786 0.214355ZM13.8928 3.42863C14.1885 3.42863 14.4285 3.66863 14.4285 3.96431V22.1785C14.4285 22.4742 14.1885 22.7142 13.8928 22.7142H2.10716C1.81148 22.7142 1.57148 22.4742 1.57148 22.1785V3.96437C1.57148 3.66868 1.81148 3.42868 2.10716 3.42868H5.32144H10.6786L13.8928 3.42863Z" fill="#0D5E36"/>
</svg>
