<svg width="26" height="18" viewBox="0 0 26 18" fill="none" xmlns="http://www.w3.org/2000/svg">
<path d="M18.4956 4.82484C18.4956 4.40814 18.8334 4.07031 19.2501 4.07031H23.2366C23.6533 4.07031 23.9911 4.40814 23.9911 4.82484V13.1749C23.9911 13.5916 23.6533 13.9295 23.2366 13.9295H19.2501C18.8334 13.9295 18.4956 13.5916 18.4956 13.1749" stroke="#0B3900" stroke-width="0.5" stroke-miterlimit="10" stroke-linecap="round" stroke-linejoin="round"/>
<path d="M13 4.82484C13 4.40814 13.3378 4.07031 13.7545 4.07031H17.7409C18.1576 4.07031 18.4955 4.40814 18.4955 4.82484V13.1749C18.4955 13.5916 18.1576 13.9295 17.7409 13.9295H13.7545C13.3378 13.9295 13 13.5916 13 13.1749" stroke="#0B3900" stroke-width="0.5" stroke-miterlimit="10" stroke-linecap="round" stroke-linejoin="round"/>
<path d="M7.50439 4.82484C7.50439 4.40814 7.84222 4.07031 8.25892 4.07031H12.2453C12.662 4.07031 12.9999 4.40814 12.9999 4.82484V13.1749C12.9999 13.5916 12.662 13.9295 12.2453 13.9295H8.25892C7.84222 13.9295 7.50439 13.5916 7.50439 13.1749" stroke="#0B3900" stroke-width="0.5" stroke-miterlimit="10" stroke-linecap="round" stroke-linejoin="round"/>
<path d="M6.74973 13.9295H2.76332C2.34662 13.9295 2.00879 13.5916 2.00879 13.1749V4.82484C2.00879 4.40814 2.34662 4.07031 2.76332 4.07031H6.74973C7.16643 4.07031 7.50426 4.40814 7.50426 4.82484V13.1749C7.50426 13.5916 7.16643 13.9295 6.74973 13.9295Z" stroke="#0B3900" stroke-width="0.5" stroke-miterlimit="10" stroke-linecap="round" stroke-linejoin="round"/>
<path d="M4.52424 2.56128H23.2365C24.4867 2.56128 25.5001 3.57471 25.5001 4.82486V13.175C25.5001 14.4251 24.4867 15.4385 23.2365 15.4385V15.9416C23.2365 16.4972 22.7861 16.9476 22.2305 16.9476H3.76971C3.21407 16.9476 2.76367 16.4972 2.76367 15.9416V15.5286" stroke="#0B3900" stroke-width="0.5" stroke-miterlimit="10" stroke-linecap="round" stroke-linejoin="round"/>
<path d="M23.2364 2.43731V2.05828C23.2364 1.50265 22.786 1.05225 22.2304 1.05225H3.76962C3.21398 1.05225 2.76358 1.50265 2.76358 2.05828V2.5613C1.51343 2.5613 0.5 3.57473 0.5 4.82488V13.175C0.5 14.4251 1.51343 15.4386 2.76358 15.4386H21.4759" stroke="#0B3900" stroke-width="0.5" stroke-miterlimit="10" stroke-linecap="round" stroke-linejoin="round"/>
<path d="M11.3311 6.73633H9.65603L9.32418 8.73925C9.32418 8.73925 9.34486 8.72853 9.38203 8.71183C9.61433 8.60725 9.82182 8.53623 10.2523 8.53623C11.0295 8.53623 11.6548 9.18728 11.614 9.97239C11.5773 10.6808 10.9897 11.2489 10.2804 11.2632C9.57927 11.2773 8.99561 10.7621 8.90185 10.0901C8.8932 10.0279 8.88867 9.9644 8.88867 9.89986" stroke="#0B3900" stroke-width="0.5" stroke-miterlimit="10" stroke-linecap="round" stroke-linejoin="round"/>
<path d="M22.4631 11.2532C22.4631 11.2532 20.3027 11.2804 20.2004 11.2463C20.0981 11.2122 20.3645 11.032 21.7809 9.00821C22.0455 8.63024 22.191 8.31138 22.253 8.04428L22.2749 7.8725C22.2749 7.24498 21.7662 6.73633 21.1388 6.73633C20.5866 6.73633 20.1264 7.13019 20.0239 7.65227" stroke="#0B3900" stroke-width="0.5" stroke-miterlimit="10" stroke-linecap="round" stroke-linejoin="round"/>
<path d="M15.7476 11.2636C16.4707 11.2636 17.0568 10.6774 17.0568 9.95442C17.0568 9.23139 16.4707 8.64526 15.7476 8.64526C15.0246 8.64526 14.4385 9.23139 14.4385 9.95442C14.4385 10.6774 15.0246 11.2636 15.7476 11.2636Z" stroke="#0B3900" stroke-width="0.5" stroke-miterlimit="10" stroke-linecap="round" stroke-linejoin="round"/>
<path d="M15.7474 8.64518C16.2745 8.64518 16.7018 8.21787 16.7018 7.69075C16.7018 7.16364 16.2745 6.73633 15.7474 6.73633C15.2203 6.73633 14.793 7.16364 14.793 7.69075C14.793 8.21787 15.2203 8.64518 15.7474 8.64518Z" stroke="#0B3900" stroke-width="0.5" stroke-miterlimit="10" stroke-linecap="round" stroke-linejoin="round"/>
<path d="M6.01462 10.0057C6.01462 10.7004 5.45149 11.2635 4.75682 11.2635C4.06215 11.2635 3.49902 10.7004 3.49902 10.0057V7.99413C3.49902 7.29946 4.06215 6.73633 4.75682 6.73633C5.45149 6.73633 6.01462 7.29946 6.01462 7.99413V10.0057Z" stroke="#0B3900" stroke-width="0.5" stroke-miterlimit="10" stroke-linecap="round" stroke-linejoin="round"/>
</svg>
