<svg width="24" height="22" viewBox="0 0 24 22" fill="none" xmlns="http://www.w3.org/2000/svg">
<path d="M24 12.6702C24 9.39184 22.6781 6.41687 20.5399 4.24892C20.5232 4.22673 20.5054 4.20501 20.4852 4.18479C20.465 4.16457 20.4434 4.14678 20.4212 4.13018C18.2532 1.99198 15.2782 0.670166 12 0.670166C8.72176 0.670166 5.74678 1.99205 3.57875 4.13018C3.55656 4.14686 3.53492 4.16464 3.5147 4.18479C3.49448 4.20501 3.4767 4.22665 3.46001 4.24892C1.32189 6.41687 0 9.39184 0 12.6702C0 15.8751 1.24792 18.888 3.51384 21.1544C3.51415 21.1548 3.51447 21.1551 3.51478 21.1555C3.51502 21.1556 3.51517 21.1559 3.51541 21.156C3.51572 21.1563 3.51604 21.1566 3.51635 21.157C3.63155 21.2722 3.78256 21.3297 3.93356 21.3297C4.08464 21.3297 4.23572 21.2721 4.35092 21.1568C4.36076 21.147 4.36965 21.1365 4.37862 21.1261L6.19727 19.3074C6.42775 19.0768 6.42775 18.7032 6.19727 18.4727C5.96679 18.2423 5.5931 18.2423 5.3627 18.4727L3.94348 19.892C2.28858 18.0504 1.3285 15.7327 1.19646 13.2603H3.20357C3.5295 13.2603 3.79373 12.9962 3.79373 12.6702C3.79373 12.3442 3.5295 12.08 3.20357 12.08H1.19662C1.33385 9.54057 2.35082 7.23137 3.94733 5.45215L5.3627 6.86752C5.4779 6.98272 5.62898 7.04032 5.77999 7.04032C5.93099 7.04032 6.08207 6.98272 6.19727 6.86752C6.42775 6.63696 6.42775 6.26335 6.19727 6.03287L4.78198 4.61742C6.56129 3.02091 8.8704 2.00394 11.4098 1.86678V3.87381C11.4098 4.19982 11.6741 4.46398 12 4.46398C12.3259 4.46398 12.5902 4.19982 12.5902 3.87381V1.86678C15.1296 2.00394 17.4387 3.02099 19.218 4.6175L17.8027 6.03287C17.5722 6.26343 17.5722 6.63704 17.8027 6.86752C17.9179 6.98272 18.0689 7.04032 18.2199 7.04032C18.3709 7.04032 18.522 6.98272 18.6372 6.86752L20.0526 5.45215C21.6491 7.23145 22.6662 9.54057 22.8033 12.08H20.7963C20.4703 12.08 20.2061 12.3442 20.2061 12.6702C20.2061 12.9962 20.4703 13.2603 20.7963 13.2603H22.8034C22.6713 15.7327 21.7113 18.0505 20.0564 19.892L18.6372 18.4727C18.4068 18.2423 18.0331 18.2423 17.8027 18.4727C17.5722 18.7033 17.5722 19.0769 17.8027 19.3074L19.6507 21.1554C19.7659 21.2706 19.9169 21.3282 20.0679 21.3282C20.1434 21.3282 20.2189 21.3138 20.29 21.285C20.361 21.2562 20.4276 21.213 20.4853 21.1554C22.7518 18.8888 24 15.8754 24 12.6702Z" fill="#222220"/>
<path d="M14.7112 5.90238C14.4085 5.78112 14.0651 5.92811 13.944 6.23074L12.2385 10.4878C12.1591 10.4793 12.0796 10.4735 12 10.4735C11.1694 10.4735 10.4191 10.9336 10.0418 11.6742C9.64741 12.4484 9.74844 13.3735 10.3119 14.1485C10.3695 14.2278 10.4418 14.3003 10.5216 14.3582C10.9794 14.691 11.4906 14.8669 12 14.8669C12.8307 14.8669 13.581 14.4068 13.9583 13.6662C14.3527 12.892 14.2516 11.967 13.6886 11.1924C13.631 11.113 13.5585 11.0403 13.4784 10.982C13.4354 10.9507 13.3914 10.9222 13.3474 10.8937L15.0396 6.66959C15.1608 6.36711 15.0138 6.02356 14.7112 5.90238ZM12.9064 13.1304C12.7317 13.4734 12.3844 13.6865 12 13.6865C11.7478 13.6865 11.4941 13.5984 11.2454 13.4247C10.9621 13.0179 10.9065 12.577 11.0935 12.2099C11.2682 11.8669 11.6156 11.6538 12 11.6538C12.1226 11.6538 12.2455 11.675 12.3681 11.7164C12.3722 11.718 12.3759 11.7201 12.3799 11.7218C12.3928 11.7269 12.4058 11.7311 12.4188 11.7352C12.5313 11.7784 12.6434 11.8379 12.7545 11.9155C13.0377 12.3223 13.0934 12.7633 12.9064 13.1304Z" fill="#222220"/>
</svg>
