<svg width="24" height="18" viewBox="0 0 24 18" fill="none" xmlns="http://www.w3.org/2000/svg">
<path d="M13.2188 0.796875C13.6828 0.796875 14.1469 0.796875 14.625 0.796875C14.625 3.27187 14.625 5.74687 14.625 8.29688C17.7188 8.29688 20.8125 8.29688 24 8.29688C24 8.76094 24 9.225 24 9.70312C20.9062 9.70312 17.8125 9.70312 14.625 9.70312C14.625 12.1781 14.625 14.6531 14.625 17.2031C14.1609 17.2031 13.6969 17.2031 13.2188 17.2031C13.2188 11.7891 13.2188 6.375 13.2188 0.796875Z" fill="#646C02"/>
<path d="M9.375 4.73438C9.83906 4.73438 10.3031 4.73438 10.7812 4.73438C10.7812 7.54969 10.7812 10.365 10.7812 13.2656C10.3172 13.2656 9.85312 13.2656 9.375 13.2656C9.375 12.09 9.375 10.9144 9.375 9.70312C6.28125 9.70312 3.1875 9.70312 0 9.70312C0 9.23906 0 8.775 0 8.29688C3.09375 8.29688 6.1875 8.29688 9.375 8.29688C9.375 7.12125 9.375 5.94563 9.375 4.73438Z" fill="#646C02"/>
<path d="M18.5156 1.26562C18.9797 1.26562 19.4437 1.26562 19.9219 1.26562C19.9219 1.72969 19.9219 2.19375 19.9219 2.67188C20.3859 2.67188 20.85 2.67188 21.3281 2.67188C21.3281 3.13594 21.3281 3.6 21.3281 4.07812C20.8641 4.07812 20.4 4.07812 19.9219 4.07812C19.9219 4.54219 19.9219 5.00625 19.9219 5.48438C19.4578 5.48438 18.9937 5.48438 18.5156 5.48438C18.5156 5.02031 18.5156 4.55625 18.5156 4.07812C18.0516 4.07812 17.5875 4.07812 17.1094 4.07812C17.1094 3.61406 17.1094 3.15 17.1094 2.67188C17.5734 2.67188 18.0375 2.67188 18.5156 2.67188C18.5156 2.20781 18.5156 1.74375 18.5156 1.26562Z" fill="#646C02"/>
</svg>
